# xmcd
# 
# Track frame offsets:
#     150
#     12825
#     24640
#     37130
#     49238
#     62758
#     75093
#     89918
#     105150
#     117930
#     131863
#     146960
#     158433
#     172765
#     187925
#     202348
#     213958
#     228760
#     243735
#     263945
# 
# Disc length: 3756
# 
# Revision: 4
# Processed by: cddbd v1.5.2PL0 Copyright (c) Steve Scherf et al.
# Submitted via: fre:ac v1.0.31
# 
DISCID=140eaa14
DTITLE=Fats Waller and His Rhythm - The Last Years (1940-43) - Disc 3
DYEAR=1989
DGENRE=Jazz
TTITLE0=Oh Baby, Sweet Baby
TTITLE1=Buck Jumpin'
TTITLE2=That Gets It, Mr. Joe
TTITLE3=The Bells of San Raquel
TTITLE4=Bessie, Bessie, Bessie
TTITLE5=Clarinet Marmalade
TTITLE6=Winter Weather
TTITLE7=Cash For Your Trash
TTITLE8=Don't Give Me That Jive
TTITLE9=Your Socks Don't Match [take 2]
TTITLE10=We Need A Little Love
TTITLE11=You Must Be Losing Your Mind
TTITLE12=Really Fine
TTITLE13=The Jitterbug Waltz
TTITLE14=By The Light Of The Silvery Moon
TTITLE15=Swing Out To Victory
TTITLE16=Up Jumped You With Love
TTITLE17=Romance a la Mode
TTITLE18=Moppin' And Boppin'
TTITLE19=Ain't Misbehavin'
EXTD=YEAR: 1989
EXTT0=
EXTT1=
EXTT2=
EXTT3=
EXTT4=
EXTT5=
EXTT6=
EXTT7=
EXTT8=
EXTT9=
EXTT10=
EXTT11=
EXTT12=
EXTT13=
EXTT14=
EXTT15=
EXTT16=
EXTT17=
EXTT18=
EXTT19=
PLAYORDER=
